<svg width="28" height="27" viewBox="0 0 28 27" fill="none" xmlns="http://www.w3.org/2000/svg">
<path fill-rule="evenodd" clip-rule="evenodd" d="M6.88683 4.66634e-06L6.93746 9.43471e-06L6.98809 4.66634e-06C7.34566 -4.73089e-05 7.58915 -8.25949e-05 7.80353 0.0245803C9.53513 0.223785 10.9012 1.58984 11.1004 3.32143C11.1251 3.53581 11.125 3.7793 11.125 4.13686V4.13687V4.13688L11.125 4.18751V5.56835C11.4725 5.61538 11.795 5.69869 12.1005 5.85436C12.712 6.16595 13.2092 6.66314 13.5208 7.27466C13.7199 7.66541 13.8006 8.0838 13.8384 8.54706C13.875 8.99462 13.875 9.54531 13.875 10.2187V10.2187V10.2501V11.8751V11.9066V11.9066C13.875 12.58 13.875 13.1306 13.8384 13.5782C13.8006 14.0415 13.7199 14.4599 13.5208 14.8506C13.2092 15.4621 12.712 15.9593 12.1005 16.2709C11.7097 16.47 11.2913 16.5507 10.8281 16.5886C10.3805 16.6251 9.82983 16.6251 9.15647 16.6251H9.15644H9.125H4.75H4.71856H4.71853C4.04518 16.6251 3.49448 16.6251 3.04693 16.5886C2.58367 16.5507 2.16527 16.47 1.77453 16.2709C1.163 15.9593 0.665818 15.4621 0.354229 14.8506C0.155137 14.4599 0.0744017 14.0415 0.0365517 13.5782C-1.57012e-05 13.1306 -8.54868e-06 12.5799 2.72804e-07 11.9066L5.11222e-07 11.8751V10.2501L2.72804e-07 10.2187C-8.54868e-06 9.54534 -1.57012e-05 8.99463 0.0365517 8.54706C0.0744017 8.0838 0.155137 7.66541 0.354229 7.27466C0.665818 6.66314 1.163 6.16595 1.77453 5.85436C2.08003 5.69871 2.40243 5.6154 2.74996 5.56837V4.18751L2.74995 4.13688C2.7499 3.77931 2.74987 3.53582 2.77453 3.32143C2.97373 1.58984 4.33979 0.223785 6.07138 0.0245803C6.28577 -8.25949e-05 6.52926 -4.73089e-05 6.88683 4.66634e-06ZM9.62496 4.18751V5.50065C9.47581 5.50013 9.31972 5.50013 9.15642 5.50013H9.125H4.75H4.71858C4.55525 5.50013 4.39914 5.50013 4.24996 5.50065V4.18751C4.24996 3.76034 4.2512 3.61025 4.2647 3.49286C4.38422 2.4539 5.20386 1.63427 6.24281 1.51475C6.3602 1.50125 6.51029 1.50001 6.93746 1.50001C7.36463 1.50001 7.51472 1.50125 7.6321 1.51475C8.67106 1.63427 9.49069 2.4539 9.61022 3.49286C9.62372 3.61025 9.62496 3.76034 9.62496 4.18751ZM22.075 1.50001C22.9274 1.50001 23.5216 1.50059 23.9843 1.53839C24.4382 1.57547 24.6989 1.6446 24.8964 1.74524C25.3198 1.96096 25.664 2.30517 25.8797 2.72853C25.9804 2.92605 26.0495 3.18681 26.0866 3.64069C26.1244 4.10332 26.125 4.69756 26.125 5.55001V20.7C26.125 21.5525 26.1244 22.1467 26.0866 22.6093C26.0495 23.0632 25.9804 23.324 25.8797 23.5215C25.664 23.9449 25.3198 24.2891 24.8964 24.5048C24.6989 24.6054 24.4382 24.6745 23.9843 24.7116C23.5216 24.7494 22.9274 24.75 22.075 24.75H13.125C12.0237 24.75 11.6394 24.7419 11.3468 24.6531C10.6277 24.435 10.065 23.8723 9.84684 23.1532C9.7581 22.8606 9.74996 22.4762 9.74996 21.375V20.6875C9.74996 20.2733 9.41417 19.9375 8.99996 19.9375C8.58575 19.9375 8.24996 20.2733 8.24996 20.6875V21.375L8.24993 21.5053C8.24959 22.4258 8.24936 23.0543 8.41143 23.5886C8.775 24.7871 9.71289 25.725 10.9114 26.0885C11.4457 26.2506 12.0742 26.2504 12.9947 26.25L13.125 26.25H22.075H22.1071C22.9199 26.25 23.5755 26.25 24.1064 26.2066C24.6531 26.162 25.1332 26.0676 25.5774 25.8413C26.283 25.4818 26.8567 24.9081 27.2162 24.2025C27.4426 23.7583 27.5369 23.2781 27.5816 22.7315C27.625 22.2006 27.625 21.545 27.625 20.7321V20.7V5.55001V5.51789C27.625 4.70506 27.625 4.04945 27.5816 3.51854C27.5369 2.9719 27.4426 2.49176 27.2162 2.04754C26.8567 1.34194 26.283 0.76826 25.5774 0.408735C25.1332 0.182394 24.6531 0.0880348 24.1064 0.0433728C23.5755 -4.39357e-06 22.9199 1.6861e-06 22.1071 9.07708e-06L22.075 9.3155e-06H16.5625C16.1482 9.3155e-06 15.8125 0.335796 15.8125 0.750009C15.8125 1.16422 16.1482 1.50001 16.5625 1.50001H22.075Z" fill="white"/>
</svg>
