<svg width="36" height="32" viewBox="0 0 36 32" fill="none" xmlns="http://www.w3.org/2000/svg">
<path fill-rule="evenodd" clip-rule="evenodd" d="M3.75 0C1.67893 0 0 1.67893 0 3.75V7.03488H0.75H34.2384H34.9884V3.75C34.9884 1.67893 33.3094 0 31.2384 0H3.75ZM0 24.5407V9.53488H0.75H34.2384H34.9884V16.2856C32.9985 13.3785 29.6552 11.4709 25.8663 11.4709C19.7655 11.4709 14.8198 16.4166 14.8198 22.5174C14.8198 24.6336 15.4148 26.6107 16.4466 28.2907H3.75C1.67893 28.2907 0 26.6118 0 24.5407ZM35.0756 22.5174C35.0756 27.5407 30.4901 31.7267 25.8663 31.7267C21.2425 31.7267 16.657 27.5407 16.657 22.5174C16.657 17.4942 20.843 13.3081 25.8663 13.3081C30.8895 13.3081 35.0756 17.4942 35.0756 22.5174ZM30.9362 20.8898C31.4244 20.4016 31.4244 19.6102 30.9362 19.122C30.4481 18.6338 29.6566 18.6338 29.1684 19.122L24.1919 24.0986L22.5641 22.4708C22.076 21.9827 21.2845 21.9827 20.7963 22.4708C20.3082 22.959 20.3082 23.7504 20.7964 24.2386L23.308 26.7502C23.7961 27.2384 24.5876 27.2384 25.0757 26.7502L30.9362 20.8898Z" fill="white"/>
</svg>
