<svg width="49" height="49" viewBox="0 0 49 49" fill="none" xmlns="http://www.w3.org/2000/svg">
<path d="M20.1765 0C17.1187 0 14.1861 1.2147 12.0239 3.37689C9.86176 5.53907 8.64706 8.47162 8.64706 11.5294C8.64706 14.5872 9.86176 17.5198 12.0239 19.6819C14.1861 21.8441 17.1187 23.0588 20.1765 23.0588C23.2343 23.0588 26.1668 21.8441 28.329 19.6819C30.4912 17.5198 31.7059 14.5872 31.7059 11.5294C31.7059 8.47162 30.4912 5.53907 28.329 3.37689C26.1668 1.2147 23.2343 0 20.1765 0ZM5.79065 25.9412C5.03154 25.9381 4.2793 26.085 3.57707 26.3733C2.87484 26.6616 2.23643 27.0857 1.69845 27.6213C1.16048 28.1568 0.733515 28.7933 0.442056 29.4943C0.150597 30.1952 0.000373299 30.9468 0 31.7059C0 36.5799 2.401 40.2549 6.15382 42.6502C9.849 45.0051 14.8297 46.1176 20.1765 46.1176H20.3206C20.2245 45.6433 20.1762 45.1605 20.1765 44.6765V33.1471C20.1763 31.4648 20.7646 29.8355 21.8396 28.5415C22.9146 27.2475 24.4084 26.3704 26.0622 26.0622C26.0696 26.0218 26.0773 25.9815 26.0853 25.9412H5.79065ZM28.8235 27.3824V28.8235H27.3824C26.2357 28.8235 25.136 29.279 24.3252 30.0899C23.5143 30.9007 23.0588 32.0004 23.0588 33.1471V44.6765C23.0588 45.8231 23.5143 46.9228 24.3252 47.7337C25.136 48.5445 26.2357 49 27.3824 49H44.6765C45.8231 49 46.9228 48.5445 47.7337 47.7337C48.5445 46.9228 49 45.8231 49 44.6765V33.1471C49 32.0004 48.5445 30.9007 47.7337 30.0899C46.9228 29.279 45.8231 28.8235 44.6765 28.8235H43.2353V27.3824C43.2353 26.2357 42.7798 25.136 41.969 24.3252C41.1581 23.5143 40.0584 23.0588 38.9118 23.0588H33.1471C32.0004 23.0588 30.9007 23.5143 30.0899 24.3252C29.279 25.136 28.8235 26.2357 28.8235 27.3824ZM33.1471 25.9412H38.9118C39.294 25.9412 39.6606 26.093 39.9308 26.3633C40.2011 26.6336 40.3529 27.0001 40.3529 27.3824V28.8235H31.7059V27.3824C31.7059 27.0001 31.8577 26.6336 32.128 26.3633C32.3983 26.093 32.7648 25.9412 33.1471 25.9412Z" fill="white"/>
</svg>
