<svg width="33" height="33" viewBox="0 0 33 33" fill="none" xmlns="http://www.w3.org/2000/svg">
<path fill-rule="evenodd" clip-rule="evenodd" d="M10.0269 6.91202C10.2003 4.4464 12.2554 2.5 14.7651 2.5H17.1922C19.702 2.5 21.7571 4.4464 21.9304 6.91202H10.0269ZM7.52284 6.91202C7.69938 3.06486 10.8743 0 14.7651 0H17.1922C21.083 0 24.258 3.06486 24.4345 6.91202H28.0088C30.4886 6.91202 32.5246 8.8123 32.74 11.2361C27.6583 16.2354 21.7897 18.6848 15.9786 18.6848C10.4636 18.6848 4.89678 16.4787 0 11.9804V11.662C0 9.03867 2.12665 6.91202 4.75 6.91202H7.52284ZM0 14.6282V27.7073C0 30.3306 2.12665 32.4572 4.75 32.4572H28.0088C30.6321 32.4572 32.7588 30.3306 32.7588 27.7072V13.9479C27.6695 18.4134 21.8482 20.6848 15.9786 20.6848C10.4149 20.6848 4.89466 18.6439 0 14.6282ZM15.9786 23.2437C16.669 23.2437 17.2286 23.8033 17.2286 24.4937V27.6997C17.2286 28.3901 16.669 28.9497 15.9786 28.9497C15.2883 28.9497 14.7286 28.3901 14.7286 27.6997V24.4937C14.7286 23.8033 15.2883 23.2437 15.9786 23.2437Z" fill="white"/>
</svg>
