<svg width="23" height="23" viewBox="0 0 23 23" fill="none" xmlns="http://www.w3.org/2000/svg">
<path fill-rule="evenodd" clip-rule="evenodd" d="M3.91957 4.02008e-07L3.95 7.59636e-07H5.80641L5.83684 4.02008e-07C6.371 -1.02672e-05 6.81685 -1.90887e-05 7.18108 0.02974C7.56096 0.0607778 7.91762 0.127889 8.25488 0.299733C8.77233 0.563385 9.19303 0.984081 9.45668 1.50153C9.62852 1.83879 9.69563 2.19545 9.72667 2.57533C9.75643 2.93955 9.75642 3.38538 9.75641 3.91951V3.91955V3.95V5.80641V5.83686V5.8369C9.75642 6.37103 9.75643 6.81686 9.72667 7.18108C9.69563 7.56096 9.62852 7.91762 9.45668 8.25488C9.19303 8.77233 8.77233 9.19303 8.25488 9.45668C7.91762 9.62852 7.56096 9.69563 7.18108 9.72667C6.81686 9.75643 6.37103 9.75642 5.8369 9.75641H5.83686H5.80641H3.95H3.91955H3.91951C3.38538 9.75642 2.93955 9.75643 2.57533 9.72667C2.19545 9.69563 1.83879 9.62852 1.50153 9.45668C0.984081 9.19303 0.563385 8.77233 0.299733 8.25488C0.127889 7.91762 0.0607778 7.56096 0.02974 7.18108C-1.90887e-05 6.81685 -1.02672e-05 6.371 4.02008e-07 5.83684L7.59636e-07 5.80641V3.95L4.02008e-07 3.91957C-1.02672e-05 3.38541 -1.90887e-05 2.93956 0.02974 2.57533C0.0607778 2.19545 0.127889 1.83879 0.299733 1.50153C0.563385 0.984081 0.984081 0.563385 1.50153 0.299733C1.83879 0.127889 2.19545 0.0607778 2.57533 0.02974C2.93956 -1.90887e-05 3.38541 -1.02672e-05 3.91957 4.02008e-07ZM16.8939 4.02008e-07L16.9244 7.59636e-07H18.7808L18.8112 4.02008e-07C19.3454 -1.02672e-05 19.7912 -1.90887e-05 20.1554 0.02974C20.5353 0.0607778 20.892 0.127889 21.2292 0.299733C21.7467 0.563385 22.1674 0.984081 22.431 1.50153C22.6029 1.83879 22.67 2.19545 22.701 2.57533C22.7308 2.93956 22.7308 3.3854 22.7308 3.91955V3.95V5.80641V5.83686C22.7308 6.37101 22.7308 6.81685 22.701 7.18108C22.67 7.56096 22.6029 7.91762 22.431 8.25488C22.1674 8.77233 21.7467 9.19303 21.2292 9.45668C20.892 9.62852 20.5353 9.69563 20.1554 9.72667C19.7912 9.75643 19.3454 9.75642 18.8113 9.75641H18.8112H18.7808H16.9244H16.8939H16.8939C16.3597 9.75642 15.9139 9.75643 15.5497 9.72667C15.1698 9.69563 14.8131 9.62852 14.4759 9.45668C13.9584 9.19303 13.5377 8.77233 13.2741 8.25488C13.1022 7.91762 13.0351 7.56096 13.0041 7.18108C12.9743 6.81685 12.9743 6.371 12.9744 5.83684V5.80641V3.95V3.91957C12.9743 3.38541 12.9743 2.93956 13.0041 2.57533C13.0351 2.19545 13.1022 1.83879 13.2741 1.50153C13.5377 0.984081 13.9584 0.563385 14.4759 0.299733C14.8131 0.127889 15.1698 0.0607778 15.5497 0.02974C15.9139 -1.90887e-05 16.3598 -1.02672e-05 16.8939 4.02008e-07ZM3.95 12.9744H3.91957C3.38541 12.9743 2.93956 12.9743 2.57533 13.0041C2.19545 13.0351 1.83879 13.1022 1.50153 13.2741C0.984081 13.5377 0.563385 13.9584 0.299733 14.4759C0.127889 14.8131 0.0607778 15.1698 0.02974 15.5497C-1.90887e-05 15.9139 -1.02672e-05 16.3598 4.02008e-07 16.8939L7.59636e-07 16.9244V18.7808L4.02008e-07 18.8112C-1.02672e-05 19.3454 -1.90887e-05 19.7912 0.02974 20.1554C0.0607778 20.5353 0.127889 20.892 0.299733 21.2292C0.563385 21.7467 0.984081 22.1674 1.50153 22.431C1.83879 22.6029 2.19545 22.67 2.57533 22.701C2.93956 22.7308 3.3854 22.7308 3.91955 22.7308H3.95H5.80641H5.83686C6.37101 22.7308 6.81685 22.7308 7.18108 22.701C7.56096 22.67 7.91762 22.6029 8.25488 22.431C8.77233 22.1674 9.19303 21.7467 9.45668 21.2292C9.62852 20.892 9.69563 20.5353 9.72667 20.1554C9.75643 19.7912 9.75642 19.3454 9.75641 18.8113V18.8112V18.7808V16.9244V16.8939V16.8939C9.75642 16.3597 9.75643 15.9139 9.72667 15.5497C9.69563 15.1698 9.62852 14.8131 9.45668 14.4759C9.19303 13.9584 8.77233 13.5377 8.25488 13.2741C7.91762 13.1022 7.56096 13.0351 7.18108 13.0041C6.81685 12.9743 6.371 12.9743 5.83684 12.9744H5.80641H3.95ZM16.8939 12.9744H16.9244H18.7808H18.8112C19.3454 12.9743 19.7912 12.9743 20.1554 13.0041C20.5353 13.0351 20.892 13.1022 21.2292 13.2741C21.7467 13.5377 22.1674 13.9584 22.431 14.4759C22.6029 14.8131 22.67 15.1698 22.701 15.5497C22.7308 15.9139 22.7308 16.3598 22.7308 16.8939V16.9244V18.7808V18.8112C22.7308 19.3454 22.7308 19.7912 22.701 20.1554C22.67 20.5353 22.6029 20.892 22.431 21.2292C22.1674 21.7467 21.7467 22.1674 21.2292 22.431C20.892 22.6029 20.5353 22.67 20.1554 22.701C19.7912 22.7308 19.3454 22.7308 18.8112 22.7308H18.7808H16.9244H16.8939C16.3598 22.7308 15.9139 22.7308 15.5497 22.701C15.1698 22.67 14.8131 22.6029 14.4759 22.431C13.9584 22.1674 13.5377 21.7467 13.2741 21.2292C13.1022 20.892 13.0351 20.5353 13.0041 20.1554C12.9743 19.7912 12.9743 19.3454 12.9744 18.8112V18.7808V16.9244V16.8939C12.9743 16.3598 12.9743 15.9139 13.0041 15.5497C13.0351 15.1698 13.1022 14.8131 13.2741 14.4759C13.5377 13.9584 13.9584 13.5377 14.4759 13.2741C14.8131 13.1022 15.1698 13.0351 15.5497 13.0041C15.9139 12.9743 16.3598 12.9743 16.8939 12.9744Z" fill="white"/>
</svg>
