<svg width="117" height="112" viewBox="0 0 117 112" fill="none" xmlns="http://www.w3.org/2000/svg">
<g filter="url(#filter0_f_621_705)">
<rect x="15" y="15" width="87" height="82" rx="20" fill="#627EEA"/>
</g>
<g filter="url(#filter1_ii_621_705)">
<rect x="15" y="16" width="87" height="82" rx="20" fill="#627EEA"/>
</g>
<path d="M58.4954 28V48.6966L75.9883 56.5133L58.4954 28Z" fill="white" fill-opacity="0.602"/>
<path d="M58.4953 28L41 56.5133L58.4953 48.6966V28Z" fill="white"/>
<path d="M58.4954 69.9256V83.9886L76 59.771L58.4954 69.9256Z" fill="white" fill-opacity="0.602"/>
<path d="M58.4953 83.9886V69.9233L41 59.771L58.4953 83.9886Z" fill="white"/>
<path d="M58.4954 66.6704L75.9883 56.5134L58.4954 48.7014V66.6704Z" fill="white" fill-opacity="0.2"/>
<path d="M41 56.5134L58.4953 66.6704V48.7014L41 56.5134Z" fill="white" fill-opacity="0.602"/>
<defs>
<filter id="filter0_f_621_705" x="0" y="0" width="117" height="112" filterUnits="userSpaceOnUse" color-interpolation-filters="sRGB">
<feFlood flood-opacity="0" result="BackgroundImageFix"/>
<feBlend mode="normal" in="SourceGraphic" in2="BackgroundImageFix" result="shape"/>
<feGaussianBlur stdDeviation="7.5" result="effect1_foregroundBlur_621_705"/>
</filter>
<filter id="filter1_ii_621_705" x="15" y="16" width="87" height="86" filterUnits="userSpaceOnUse" color-interpolation-filters="sRGB">
<feFlood flood-opacity="0" result="BackgroundImageFix"/>
<feBlend mode="normal" in="SourceGraphic" in2="BackgroundImageFix" result="shape"/>
<feColorMatrix in="SourceAlpha" type="matrix" values="0 0 0 0 0 0 0 0 0 0 0 0 0 0 0 0 0 0 127 0" result="hardAlpha"/>
<feOffset dy="4"/>
<feGaussianBlur stdDeviation="5"/>
<feComposite in2="hardAlpha" operator="arithmetic" k2="-1" k3="1"/>
<feColorMatrix type="matrix" values="0 0 0 0 1 0 0 0 0 1 0 0 0 0 1 0 0 0 1 0"/>
<feBlend mode="normal" in2="shape" result="effect1_innerShadow_621_705"/>
<feColorMatrix in="SourceAlpha" type="matrix" values="0 0 0 0 0 0 0 0 0 0 0 0 0 0 0 0 0 0 127 0" result="hardAlpha"/>
<feOffset dy="1"/>
<feGaussianBlur stdDeviation="5"/>
<feComposite in2="hardAlpha" operator="arithmetic" k2="-1" k3="1"/>
<feColorMatrix type="matrix" values="0 0 0 0 1 0 0 0 0 1 0 0 0 0 1 0 0 0 1 0"/>
<feBlend mode="normal" in2="effect1_innerShadow_621_705" result="effect2_innerShadow_621_705"/>
</filter>
</defs>
</svg>
