<svg width="204" height="33" viewBox="0 0 204 33" fill="none" xmlns="http://www.w3.org/2000/svg">
<path d="M19.242 16.391C21.7073 17.9677 22.94 20.2323 22.94 23.185C22.94 25.7937 22.0083 27.915 20.145 29.549C18.2817 31.183 15.974 32 13.222 32H0.58V1.9H12.362C15.0567 1.9 17.307 2.70266 19.113 4.308C20.9477 5.88466 21.865 7.94867 21.865 10.5C21.865 12.908 20.9907 14.8717 19.242 16.391ZM12.362 8.35H7.46V13.682H12.362C13.136 13.682 13.7667 13.4383 14.254 12.951C14.7413 12.435 14.985 11.79 14.985 11.016C14.985 10.242 14.7413 9.61133 14.254 9.124C13.7667 8.608 13.136 8.35 12.362 8.35ZM13.222 25.55C14.082 25.55 14.77 25.292 15.286 24.776C15.802 24.2313 16.06 23.529 16.06 22.669C16.06 21.809 15.802 21.121 15.286 20.605C14.77 20.0603 14.082 19.788 13.222 19.788H7.46V25.55H13.222ZM26.1482 32V0.609999H32.5982V32H26.1482ZM52.9271 10.5H59.3771V32H52.9271V29.979C51.4078 31.7277 49.2721 32.602 46.5201 32.602C43.6821 32.602 41.2598 31.5127 39.2531 29.334C37.2465 27.1267 36.2431 24.432 36.2431 21.25C36.2431 18.068 37.2465 15.3877 39.2531 13.209C41.2598 11.0017 43.6821 9.898 46.5201 9.898C49.2721 9.898 51.4078 10.7723 52.9271 12.521V10.5ZM44.1121 25.077C45.0581 26.023 46.2908 26.496 47.8101 26.496C49.3295 26.496 50.5621 26.023 51.5081 25.077C52.4541 24.131 52.9271 22.8553 52.9271 21.25C52.9271 19.6447 52.4541 18.369 51.5081 17.423C50.5621 16.477 49.3295 16.004 47.8101 16.004C46.2908 16.004 45.0581 16.477 44.1121 17.423C43.1661 18.369 42.6931 19.6447 42.6931 21.25C42.6931 22.8553 43.1661 24.131 44.1121 25.077ZM74.4291 32.602C71.1611 32.602 68.4378 31.5127 66.2591 29.334C64.1091 27.1553 63.0341 24.4607 63.0341 21.25C63.0341 18.0393 64.1091 15.3447 66.2591 13.166C68.4378 10.9873 71.1611 9.898 74.4291 9.898C76.4931 9.898 78.3851 10.3997 80.1051 11.403C81.8538 12.4063 83.2011 13.7393 84.1471 15.402L78.5141 18.67C77.7401 17.0647 76.3498 16.262 74.3431 16.262C72.9385 16.262 71.7775 16.735 70.8601 17.681C69.9428 18.5983 69.4841 19.788 69.4841 21.25C69.4841 22.712 69.9428 23.916 70.8601 24.862C71.7775 25.7793 72.9385 26.238 74.3431 26.238C76.3785 26.238 77.7688 25.4353 78.5141 23.83L84.1471 27.055C83.2011 28.7463 81.8681 30.0937 80.1481 31.097C78.4281 32.1003 76.5218 32.602 74.4291 32.602ZM107.383 32H100.073L93.1929 22.497V32H86.7429V1.9H93.1929V19.917L99.6429 10.5H107.168L99.3419 21.25L107.383 32Z" fill="#00A3FF"/>
<path d="M125.794 32L120.118 22.11H116.85V32H109.97V1.9H122.01C124.876 1.9 127.313 2.90333 129.32 4.91C131.326 6.91667 132.33 9.35333 132.33 12.22C132.33 14.0547 131.814 15.7603 130.782 17.337C129.778 18.885 128.445 20.089 126.783 20.949L133.19 32H125.794ZM116.85 8.35V16.09H122.01C122.956 16.09 123.758 15.7173 124.418 14.972C125.106 14.2267 125.45 13.3093 125.45 12.22C125.45 11.1307 125.106 10.2133 124.418 9.468C123.758 8.72267 122.956 8.35 122.01 8.35H116.85ZM153.522 29.334C151.315 31.5127 148.62 32.602 145.438 32.602C142.256 32.602 139.561 31.5127 137.354 29.334C135.147 27.1267 134.043 24.432 134.043 21.25C134.043 18.068 135.147 15.3877 137.354 13.209C139.561 11.0017 142.256 9.898 145.438 9.898C148.62 9.898 151.315 11.0017 153.522 13.209C155.729 15.3877 156.833 18.068 156.833 21.25C156.833 24.432 155.729 27.1267 153.522 29.334ZM141.912 24.905C142.858 25.851 144.033 26.324 145.438 26.324C146.843 26.324 148.018 25.851 148.964 24.905C149.91 23.959 150.383 22.7407 150.383 21.25C150.383 19.7593 149.91 18.541 148.964 17.595C148.018 16.649 146.843 16.176 145.438 16.176C144.033 16.176 142.858 16.649 141.912 17.595C140.966 18.541 140.493 19.7593 140.493 21.25C140.493 22.7407 140.966 23.959 141.912 24.905ZM170.801 32.602C167.533 32.602 164.81 31.5127 162.631 29.334C160.481 27.1553 159.406 24.4607 159.406 21.25C159.406 18.0393 160.481 15.3447 162.631 13.166C164.81 10.9873 167.533 9.898 170.801 9.898C172.865 9.898 174.757 10.3997 176.477 11.403C178.226 12.4063 179.573 13.7393 180.519 15.402L174.886 18.67C174.112 17.0647 172.722 16.262 170.715 16.262C169.311 16.262 168.15 16.735 167.232 17.681C166.315 18.5983 165.856 19.788 165.856 21.25C165.856 22.712 166.315 23.916 167.232 24.862C168.15 25.7793 169.311 26.238 170.715 26.238C172.751 26.238 174.141 25.4353 174.886 23.83L180.519 27.055C179.573 28.7463 178.24 30.0937 176.52 31.097C174.8 32.1003 172.894 32.602 170.801 32.602ZM203.755 32H196.445L189.565 22.497V32H183.115V1.9H189.565V19.917L196.015 10.5H203.54L195.714 21.25L203.755 32Z" fill="#00DEDE"/>
</svg>
