<svg width="51" height="51" viewBox="0 0 51 51" fill="none" xmlns="http://www.w3.org/2000/svg">
<path d="M25.5 11.3942L30.7594 4.964C30.7594 4.964 39.78 5.15525 48.7602 9.32875C46.461 12.8052 41.8944 14.5095 41.8944 14.5095C41.5841 11.4516 39.4421 10.7058 32.6421 10.7058L25.5 51L18.3154 10.6972C11.5579 10.6972 9.41587 11.4495 9.1035 14.5053C9.1035 14.5053 4.54325 12.8159 2.24187 9.3415C11.22 5.16587 20.2406 4.9725 20.2406 4.9725L25.5 11.3942L25.4915 11.3985H25.5V11.3942ZM25.5 3.10888C32.7569 3.04513 41.0677 4.23088 49.572 7.95388C50.7089 5.89688 51 4.9895 51 4.9895C41.7031 1.3005 32.997 0.031875 25.5 0C18.003 0.031875 9.29688 1.29625 0 4.99162C0 4.99162 0.414375 6.10725 1.428 7.95812C9.93225 4.22662 18.2431 3.04938 25.5 3.1025V3.10888V3.10888Z" fill="white"/>
</svg>
